<svg width="1840" height="500" viewBox="0 0 1840 500" fill="none" xmlns="http://www.w3.org/2000/svg">
<rect x="98" y="250" width="218.601" height="218.943" rx="10" transform="rotate(-45 98 250)" fill="#FFFB98"/>
<path d="M246.883 97.533C250.261 94.155 255.738 94.155 259.117 97.533L405.467 243.883C408.845 247.261 408.846 252.738 405.467 256.117L259.117 402.466C255.74 405.844 250.263 405.846 246.883 402.466L100.533 256.117C97.1555 252.739 97.1555 247.262 100.533 243.883L246.883 97.533Z" stroke="#D7D24A" stroke-width="25" stroke-linecap="round" stroke-linejoin="round"/>
<path d="M615.609 219.669C614.738 211.937 611.144 205.947 604.828 201.7C598.512 197.399 590.562 195.248 580.979 195.248C574.118 195.248 568.183 196.337 563.173 198.515C558.164 200.638 554.271 203.579 551.494 207.336C548.771 211.039 547.41 215.259 547.41 219.996C547.41 223.971 548.335 227.401 550.187 230.287C552.093 233.173 554.57 235.596 557.619 237.556C560.723 239.462 564.045 241.068 567.584 242.375C571.123 243.627 574.526 244.662 577.793 245.479L594.129 249.726C599.465 251.033 604.937 252.802 610.545 255.035C616.154 257.267 621.354 260.208 626.146 263.856C630.937 267.504 634.803 272.023 637.744 277.414C640.738 282.805 642.236 289.257 642.236 296.771C642.236 306.246 639.786 314.658 634.885 322.009C630.039 329.36 622.987 335.159 613.731 339.406C604.529 343.653 593.393 345.777 580.325 345.777C567.802 345.777 556.966 343.79 547.818 339.815C538.67 335.84 531.51 330.204 526.337 322.908C521.165 315.557 518.306 306.845 517.761 296.771H543.081C543.571 302.815 545.531 307.852 548.962 311.881C552.446 315.856 556.884 318.824 562.275 320.784C567.72 322.69 573.682 323.643 580.162 323.643C587.295 323.643 593.638 322.527 599.192 320.294C604.801 318.007 609.211 314.849 612.424 310.82C615.637 306.736 617.243 301.971 617.243 296.526C617.243 291.571 615.827 287.515 612.996 284.357C610.219 281.198 606.434 278.585 601.643 276.516C596.906 274.446 591.542 272.622 585.553 271.043L565.787 265.653C552.392 262.004 541.774 256.641 533.933 249.562C526.147 242.484 522.254 233.118 522.254 221.466C522.254 211.828 524.867 203.415 530.094 196.228C535.322 189.04 542.4 183.459 551.33 179.484C560.26 175.455 570.334 173.44 581.55 173.44C592.876 173.44 602.868 175.428 611.526 179.403C620.238 183.378 627.098 188.85 632.108 195.82C637.117 202.735 639.731 210.685 639.949 219.669H615.609ZM728.996 217.545V237.148H660.47V217.545H728.996ZM678.847 187.489H703.268V306.164C703.268 310.901 703.976 314.468 705.392 316.864C706.808 319.205 708.632 320.811 710.864 321.683C713.151 322.499 715.629 322.908 718.297 322.908C720.257 322.908 721.972 322.772 723.442 322.499C724.912 322.227 726.056 322.009 726.873 321.846L731.283 342.02C729.867 342.564 727.853 343.109 725.239 343.653C722.626 344.252 719.358 344.579 715.438 344.634C709.013 344.742 703.023 343.599 697.469 341.203C691.915 338.807 687.423 335.105 683.993 330.095C680.562 325.086 678.847 318.797 678.847 311.228V187.489ZM792.52 345.777C784.57 345.777 777.383 344.307 770.957 341.366C764.532 338.372 759.441 334.043 755.684 328.38C751.981 322.717 750.13 315.775 750.13 307.553C750.13 300.474 751.491 294.648 754.214 290.074C756.936 285.5 760.612 281.879 765.24 279.211C769.868 276.543 775.041 274.528 780.759 273.167C786.476 271.806 792.302 270.771 798.237 270.063C805.751 269.192 811.85 268.484 816.533 267.94C821.215 267.341 824.619 266.388 826.742 265.081C828.866 263.774 829.928 261.651 829.928 258.71V258.138C829.928 251.005 827.913 245.479 823.884 241.558C819.909 237.638 813.973 235.678 806.078 235.678C797.856 235.678 791.376 237.502 786.639 241.15C781.956 244.744 778.717 248.746 776.92 253.156L753.969 247.929C756.691 240.306 760.666 234.153 765.893 229.47C771.175 224.733 777.246 221.303 784.107 219.179C790.968 217.001 798.183 215.912 805.751 215.912C810.761 215.912 816.07 216.511 821.678 217.709C827.341 218.852 832.623 220.976 837.523 224.08C842.478 227.183 846.535 231.621 849.693 237.393C852.851 243.11 854.43 250.543 854.43 259.69V343H830.581V325.848H829.601C828.022 329.006 825.653 332.11 822.495 335.159C819.337 338.208 815.28 340.74 810.325 342.755C805.37 344.77 799.435 345.777 792.52 345.777ZM797.829 326.175C804.581 326.175 810.353 324.841 815.144 322.173C819.99 319.504 823.666 316.02 826.17 311.718C828.73 307.362 830.009 302.706 830.009 297.751V281.58C829.138 282.451 827.45 283.268 824.945 284.03C822.495 284.738 819.691 285.364 816.533 285.908C813.375 286.398 810.298 286.861 807.303 287.297C804.308 287.678 801.804 288.005 799.789 288.277C795.052 288.876 790.723 289.883 786.803 291.299C782.937 292.715 779.833 294.757 777.491 297.425C775.205 300.038 774.061 303.523 774.061 307.879C774.061 313.923 776.294 318.497 780.759 321.601C785.223 324.65 790.914 326.175 797.829 326.175ZM945.52 217.545V237.148H876.993V217.545H945.52ZM895.371 187.489H919.792V306.164C919.792 310.901 920.5 314.468 921.915 316.864C923.331 319.205 925.155 320.811 927.388 321.683C929.675 322.499 932.152 322.908 934.82 322.908C936.78 322.908 938.496 322.772 939.966 322.499C941.436 322.227 942.579 322.009 943.396 321.846L947.807 342.02C946.391 342.564 944.376 343.109 941.763 343.653C939.149 344.252 935.882 344.579 931.961 344.634C925.536 344.742 919.547 343.599 913.993 341.203C908.439 338.807 903.947 335.105 900.516 330.095C897.086 325.086 895.371 318.797 895.371 311.228V187.489ZM972.534 343V217.545H996.955V343H972.534ZM984.867 198.188C980.62 198.188 976.972 196.772 973.923 193.941C970.928 191.055 969.43 187.625 969.43 183.65C969.43 179.62 970.928 176.19 973.923 173.359C976.972 170.473 980.62 169.03 984.867 169.03C989.114 169.03 992.735 170.473 995.73 173.359C998.779 176.19 1000.3 179.62 1000.3 183.65C1000.3 187.625 998.779 191.055 995.73 193.941C992.735 196.772 989.114 198.188 984.867 198.188ZM1082.65 345.532C1070.51 345.532 1060.06 342.782 1051.29 337.283C1042.58 331.729 1035.88 324.078 1031.2 314.332C1026.52 304.585 1024.17 293.423 1024.17 280.844C1024.17 268.103 1026.57 256.859 1031.36 247.112C1036.15 237.311 1042.9 229.661 1051.62 224.161C1060.33 218.662 1070.59 215.912 1082.41 215.912C1091.94 215.912 1100.43 217.682 1107.89 221.221C1115.35 224.706 1121.37 229.606 1125.94 235.923C1130.57 242.239 1133.32 249.617 1134.19 258.057H1110.42C1109.12 252.176 1106.12 247.112 1101.44 242.865C1096.81 238.618 1090.6 236.494 1082.82 236.494C1076.01 236.494 1070.05 238.291 1064.93 241.885C1059.87 245.424 1055.92 250.488 1053.09 257.077C1050.26 263.611 1048.84 271.343 1048.84 280.273C1048.84 289.42 1050.23 297.316 1053.01 303.959C1055.78 310.602 1059.7 315.747 1064.77 319.396C1069.89 323.044 1075.9 324.868 1082.82 324.868C1087.45 324.868 1091.64 324.024 1095.4 322.336C1099.21 320.594 1102.39 318.116 1104.95 314.903C1107.57 311.691 1109.39 307.825 1110.42 303.305H1134.19C1133.32 311.419 1130.68 318.661 1126.27 325.031C1121.86 331.402 1115.95 336.411 1108.55 340.06C1101.19 343.708 1092.56 345.532 1082.65 345.532ZM1358.15 175.727V343H1334.95L1249.93 220.322H1248.37V343H1223.14V175.727H1246.5L1331.6 298.568H1333.15V175.727H1358.15ZM1393 343V217.545H1417.42V343H1393ZM1405.34 198.188C1401.09 198.188 1397.44 196.772 1394.39 193.941C1391.4 191.055 1389.9 187.625 1389.9 183.65C1389.9 179.62 1391.4 176.19 1394.39 173.359C1397.44 170.473 1401.09 169.03 1405.34 169.03C1409.58 169.03 1413.2 170.473 1416.2 173.359C1419.25 176.19 1420.77 179.62 1420.77 183.65C1420.77 187.625 1419.25 191.055 1416.2 193.941C1413.2 196.772 1409.58 198.188 1405.34 198.188ZM1474.7 268.511V343H1450.28V217.545H1473.72V237.964H1475.27C1478.16 231.321 1482.68 225.985 1488.83 221.956C1495.04 217.927 1502.85 215.912 1512.27 215.912C1520.82 215.912 1528.31 217.709 1534.73 221.303C1541.16 224.842 1546.14 230.124 1549.68 237.148C1553.22 244.172 1554.99 252.857 1554.99 263.202V343H1530.57V266.143C1530.57 257.049 1528.2 249.944 1523.46 244.825C1518.72 239.652 1512.22 237.066 1503.94 237.066C1498.28 237.066 1493.24 238.291 1488.83 240.741C1484.47 243.192 1481.02 246.786 1478.46 251.523C1475.95 256.205 1474.7 261.868 1474.7 268.511ZM1587.74 217.545H1612.16V351.168C1612.16 359.553 1610.64 366.632 1607.59 372.403C1604.59 378.175 1600.13 382.558 1594.19 385.553C1588.31 388.548 1581.04 390.045 1572.38 390.045C1571.51 390.045 1570.7 390.045 1569.93 390.045C1569.12 390.045 1568.27 390.018 1567.4 389.964V368.973C1568.16 368.973 1568.84 368.973 1569.44 368.973C1569.99 368.973 1570.61 368.973 1571.32 368.973C1577.09 368.973 1581.26 367.421 1583.82 364.317C1586.43 361.268 1587.74 356.83 1587.74 351.004V217.545ZM1599.83 198.188C1595.58 198.188 1591.93 196.772 1588.88 193.941C1585.89 191.055 1584.39 187.625 1584.39 183.65C1584.39 179.62 1585.89 176.19 1588.88 173.359C1591.93 170.473 1595.58 169.03 1599.83 169.03C1604.07 169.03 1607.7 170.473 1610.69 173.359C1613.74 176.19 1615.26 179.62 1615.26 183.65C1615.26 187.625 1613.74 191.055 1610.69 193.941C1607.7 196.772 1604.07 198.188 1599.83 198.188ZM1681.52 345.777C1673.57 345.777 1666.39 344.307 1659.96 341.366C1653.54 338.372 1648.44 334.043 1644.69 328.38C1640.99 322.717 1639.13 315.775 1639.13 307.553C1639.13 300.474 1640.5 294.648 1643.22 290.074C1645.94 285.5 1649.62 281.879 1654.24 279.211C1658.87 276.543 1664.05 274.528 1669.76 273.167C1675.48 271.806 1681.31 270.771 1687.24 270.063C1694.76 269.192 1700.85 268.484 1705.54 267.94C1710.22 267.341 1713.62 266.388 1715.75 265.081C1717.87 263.774 1718.93 261.651 1718.93 258.71V258.138C1718.93 251.005 1716.92 245.479 1712.89 241.558C1708.91 237.638 1702.98 235.678 1695.08 235.678C1686.86 235.678 1680.38 237.502 1675.64 241.15C1670.96 244.744 1667.72 248.746 1665.92 253.156L1642.97 247.929C1645.7 240.306 1649.67 234.153 1654.9 229.47C1660.18 224.733 1666.25 221.303 1673.11 219.179C1679.97 217.001 1687.19 215.912 1694.76 215.912C1699.76 215.912 1705.07 216.511 1710.68 217.709C1716.35 218.852 1721.63 220.976 1726.53 224.08C1731.48 227.183 1735.54 231.621 1738.7 237.393C1741.86 243.11 1743.43 250.543 1743.43 259.69V343H1719.58V325.848H1718.6C1717.03 329.006 1714.66 332.11 1711.5 335.159C1708.34 338.208 1704.28 340.74 1699.33 342.755C1694.37 344.77 1688.44 345.777 1681.52 345.777ZM1686.83 326.175C1693.58 326.175 1699.36 324.841 1704.15 322.173C1708.99 319.504 1712.67 316.02 1715.17 311.718C1717.73 307.362 1719.01 302.706 1719.01 297.751V281.58C1718.14 282.451 1716.45 283.268 1713.95 284.03C1711.5 284.738 1708.69 285.364 1705.54 285.908C1702.38 286.398 1699.3 286.861 1696.31 287.297C1693.31 287.678 1690.81 288.005 1688.79 288.277C1684.06 288.876 1679.73 289.883 1675.81 291.299C1671.94 292.715 1668.84 294.757 1666.5 297.425C1664.21 300.038 1663.06 303.523 1663.06 307.879C1663.06 313.923 1665.3 318.497 1669.76 321.601C1674.23 324.65 1679.92 326.175 1686.83 326.175Z" fill="black"/>
</svg>
